<?xml version="1.0" encoding="utf-8"?>
<!-- Svg Vector Icons : http://www.onlinewebfonts.com/icon -->
<!DOCTYPE svg PUBLIC "-//W3C//DTD SVG 1.1//EN" "http://www.w3.org/Graphics/SVG/1.1/DTD/svg11.dtd">
<svg version="1.1" xmlns="http://www.w3.org/2000/svg" xmlns:xlink="http://www.w3.org/1999/xlink" x="0px" y="0px" viewBox="0 0 256 256" enable-background="new 0 0 256 256" xml:space="preserve">
<metadata> Svg Vector Icons : http://www.onlinewebfonts.com/icon </metadata>
<g><g><path fill="#000000" d="M208,204.1h-23v18.3c0,13.1-11.6,23.6-24.7,23.6H73.2c-13.1,0-23.6-10.6-23.6-23.6V94.8h25.3v125.9h16.8l0-125.9c4.5,3.3,11.3,5.7,17,7v119h16.8V102.2c6.3-1,12.1-3.4,17-6.8v125.3h16.8V94.8h25.2H208c10.5,0,18.9,8.5,18.9,18.9v71.5C226.9,195.6,218.5,204.1,208,204.1z M210,111.2H185v75.9h25L210,111.2L210,111.2z M169.7,86.9c-8.3,0-15.7-3.3-21.3-8.6c-6.8,9.7-18.1,16.1-30.9,16.1c-12.3,0-23.1-6-30.1-15.1c-5.5,5.1-12.7,8.2-20.8,8.2c-14.8,0-27.2-10.5-30.1-24.5c-4.5-2.9-7.5-8-7.5-13.8c0-9.2,7.4-16.5,16.5-16.5c0.7,0,1.3,0.1,2,0.2c5.1-4.1,11.5-6.6,18.5-6.8C69.3,16.8,78,10,88.4,10c8,0,15.1,4,19.3,10.1c3.1-0.8,6.4-1.4,9.7-1.4c3.5,0,6.9,0.6,10.1,1.5c4.3-6.2,11.4-10.3,19.5-10.3c10.2,0,18.8,6.5,22.1,15.5c0.1,0,0.3,0,0.4,0c17,0,30.7,13.8,30.7,30.7C200.4,73.2,186.6,86.9,169.7,86.9z"/></g></g>
</svg>